HIERARCHY
ROOT hip
{
  OFFSET 0 0 0
  CHANNELS 6 Xposition Yposition Zposition Zrotation Yrotation Xrotation
  JOINT abdomen
  {
    OFFSET 0 20.6881 -0.73152
    CHANNELS 3 Zrotation Xrotation Yrotation
    JOINT chest
    {
      OFFSET 0 11.7043 -0.48768
      CHANNELS 3 Zrotation Xrotation Yrotation
      JOINT neck
      {
        OFFSET 0 22.1894 -2.19456
        CHANNELS 3 Zrotation Xrotation Yrotation
        JOINT head
        {
          OFFSET -0.24384 7.07133 1.2192
          CHANNELS 3 Zrotation Xrotation Yrotation
          JOINT leftEye
          {
            OFFSET 4.14528 8.04674 8.04672
            CHANNELS 3 Zrotation Xrotation Yrotation
            End Site
            {
              OFFSET 1 0 0
            }
          }
          JOINT rightEye
          {
            OFFSET -3.6576 8.04674 8.04672
            CHANNELS 3 Zrotation Xrotation Yrotation
            End Site
            {
              OFFSET 1 0 0
            }
          }
        }
      }
      JOINT rCollar
      {
        OFFSET -2.68224 19.2634 -4.8768
        CHANNELS 3 Zrotation Xrotation Yrotation
        JOINT rShldr
        {
          OFFSET -8.77824 -1.95073 1.46304
          CHANNELS 3 Zrotation Xrotation Yrotation
          JOINT rForeArm
          {
            OFFSET -28.1742 -1.7115 0.48768
            CHANNELS 3 Zrotation Xrotation Yrotation
            JOINT rHand
            {
              OFFSET -22.5879 0.773209 7.07136
              CHANNELS 3 Zrotation Xrotation Yrotation
              JOINT rThumb1
              {
                OFFSET -1.2192 -0.487915 3.41376
                CHANNELS 3 Zrotation Xrotation Yrotation
                JOINT rThumb2
                {
                  OFFSET -3.37035 -0.52449 3.41376
                  CHANNELS 3 Zrotation Xrotation Yrotation
                  End Site
                  {
                    OFFSET -1.78271 -1.18214 1.43049
                  }
                }
              }
              JOINT rIndex1
              {
                OFFSET -7.75947 0.938293 5.60832
                CHANNELS 3 Zrotation Xrotation Yrotation
                JOINT rIndex2
                {
                  OFFSET -2.54057 -0.884171 1.56538
                  CHANNELS 3 Zrotation Xrotation Yrotation
                  End Site
                  {
                    OFFSET -1.62519 -0.234802 1.16502
                  }
                }
              }
              JOINT rMid1
              {
                OFFSET -8.24714 1.18213 3.41376
                CHANNELS 3 Zrotation Xrotation Yrotation
                JOINT rMid2
                {
                  OFFSET -3.10165 -0.590103 1.0647
                  CHANNELS 3 Zrotation Xrotation Yrotation
                  End Site
                  {
                    OFFSET -2.48547 -0.328903 0.83742
                  }
                }
              }
              JOINT rRing1
              {
                OFFSET -8.82822 0.546677 1.51678
                CHANNELS 3 Zrotation Xrotation Yrotation
                JOINT rRing2
                {
                  OFFSET -2.60934 -0.819778 -0.0198488
                  CHANNELS 3 Zrotation Xrotation Yrotation
                  End Site
                  {
                    OFFSET -2.33842 -0.294052 0.168128
                  }
                }
              }
              JOINT rPinky1
              {
                OFFSET -8.27202 -0.0477905 -0.4584
                CHANNELS 3 Zrotation Xrotation Yrotation
                JOINT rPinky2
                {
                  OFFSET -1.82734 -0.647385 -0.700984
                  CHANNELS 3 Zrotation Xrotation Yrotation
                  End Site
                  {
                    OFFSET -1.69225 -0.51767 -0.607171
                  }
                }
              }
            }
          }
        }
      }
      JOINT lCollar
      {
        OFFSET 2.68224 19.2634 -4.8768
        CHANNELS 3 Zrotation Xrotation Yrotation
        JOINT lShldr
        {
          OFFSET 8.77824 -1.95073 1.46304
          CHANNELS 3 Zrotation Xrotation Yrotation
          JOINT lForeArm
          {
            OFFSET 28.1742 -1.7115 0.48768
            CHANNELS 3 Zrotation Xrotation Yrotation
            JOINT lHand
            {
              OFFSET 22.5879 0.773209 7.07136
              CHANNELS 3 Zrotation Xrotation Yrotation
              JOINT lThumb1
              {
                OFFSET 1.2192 -0.487915 3.41376
                CHANNELS 3 Zrotation Xrotation Yrotation
                JOINT lThumb2
                {
                  OFFSET 3.37035 -0.52449 3.41376
                  CHANNELS 3 Zrotation Xrotation Yrotation
                  End Site
                  {
                    OFFSET 1.78271 -1.18214 1.43049
                  }
                }
              }
              JOINT lIndex1
              {
                OFFSET 7.75947 0.938293 5.60832
                CHANNELS 3 Zrotation Xrotation Yrotation
                JOINT lIndex2
                {
                  OFFSET 2.54057 -0.884171 1.56538
                  CHANNELS 3 Zrotation Xrotation Yrotation
                  End Site
                  {
                    OFFSET 1.62519 -0.234802 1.16502
                  }
                }
              }
              JOINT lMid1
              {
                OFFSET 8.24714 1.18213 3.41376
                CHANNELS 3 Zrotation Xrotation Yrotation
                JOINT lMid2
                {
                  OFFSET 3.10165 -0.590103 1.0647
                  CHANNELS 3 Zrotation Xrotation Yrotation
                  End Site
                  {
                    OFFSET 2.48547 -0.328903 0.83742
                  }
                }
              }
              JOINT lRing1
              {
                OFFSET 8.82822 0.546677 1.51678
                CHANNELS 3 Zrotation Xrotation Yrotation
                JOINT lRing2
                {
                  OFFSET 2.60934 -0.819778 -0.0198488
                  CHANNELS 3 Zrotation Xrotation Yrotation
                  End Site
                  {
                    OFFSET 2.33842 -0.294052 0.168128
                  }
                }
              }
              JOINT lPinky1
              {
                OFFSET 8.27202 -0.0477905 -0.4584
                CHANNELS 3 Zrotation Xrotation Yrotation
                JOINT lPinky2
                {
                  OFFSET 1.82734 -0.647385 -0.700984
                  CHANNELS 3 Zrotation Xrotation Yrotation
                  End Site
                  {
                    OFFSET 1.69225 -0.51767 -0.607171
                  }
                }
              }
            }
          }
        }
      }
    }
  }
  JOINT rButtock
  {
    OFFSET -8.77824 4.35084 1.2192
    CHANNELS 3 Zrotation Xrotation Yrotation
    JOINT rThigh
    {
      OFFSET 0 -1.70687 -2.19456
      CHANNELS 3 Zrotation Xrotation Yrotation
      JOINT rShin
      {
        OFFSET 0 -36.8199 0.73152
        CHANNELS 3 Zrotation Xrotation Yrotation
        JOINT rFoot
        {
          OFFSET 0.73152 -45.1104 -5.12064
          CHANNELS 3 Zrotation Xrotation Yrotation
          End Site
          {
            OFFSET -1.1221 -3.69964 12.103
          }
        }
      }
    }
  }
  JOINT lButtock
  {
    OFFSET 8.77824 4.35084 1.2192
    CHANNELS 3 Zrotation Xrotation Yrotation
    JOINT lThigh
    {
      OFFSET 0 -1.70687 -2.19456
      CHANNELS 3 Zrotation Xrotation Yrotation
      JOINT lShin
      {
        OFFSET 0 -36.8199 0.73152
        CHANNELS 3 Zrotation Xrotation Yrotation
        JOINT lFoot
        {
          OFFSET -0.73152 -45.1104 -5.12064
          CHANNELS 3 Zrotation Xrotation Yrotation
          End Site
          {
            OFFSET 1.1221 -3.69964 12.103
          }
        }
      }
    }
  }
}
MOTION
Frames:	4
Frame Time:	0.03333
0.0 0.0 0.0 0.0 0.0 0.0 0.0 0.0 0.0 0.0 0.0 0.0 0.0 0.0 0.0 0.0 0.0 0.0 0.0 0.0 0.0 0.0 0.0 0.0 0.0 0.0 0.0 0.0 0.0 0.0 0.0 0.0 0.0 0.0 0.0 0.0 0.0 0.0 0.0 0.0 0.0 0.0 0.0 0.0 0.0 0.0 0.0 0.0 0.0 0.0 0.0 0.0 0.0 0.0 0.0 0.0 0.0 0.0 0.0 0.0 0.0 0.0 0.0 0.0 0.0 0.0 0.0 0.0 0.0 0.0 0.0 0.0 0.0 0.0 0.0 0.0 0.0 0.0 0.0 0.0 0.0 0.0 0.0 0.0 0.0 0.0 0.0 0.0 0.0 0.0 0.0 0.0 0.0 0.0 0.0 0.0 0.0 0.0 0.0 0.0 0.0 0.0 0.0 0.0 0.0 0.0 0.0 0.0 0.0 0.0 0.0 0.0 0.0 0.0 0.0 0.0 0.0 0.0 0.0 0.0 0.0 0.0 0.0 0.0 0.0 0.0 0.0 0.0 0.0 0.0 0.0 0.0
-0.2076 60.6158 -0.1405 -0.542864 36.296116 -1.265911 -1.28242 3.526548 36.446469 7.623396 3.29162 -50.34221 7.394803 -11.695032 93.068599 -36.31861 -18.212167 -62.016268 -151.034043 -7.780981 -29.500634 -33.606643 13.031549 -41.434987 76.250385 24.845702 6.461957 -0.648956 15.589653 8.772433 83.000963 -88.197651 -87.465804 177.207185 -29.367875 103.384866 179.414248 -26.059238 53.662871 137.154493 63.315499 -127.696219 -29.367685 68.179911 -111.137231 170.542928 40.751226 -70.80997 -59.824986 34.151324 -39.380121 8.453516 -59.365747 -134.354777 -98.781208 34.927777 -103.318646 -62.292983 -10.20405 -76.244155 -172.636804 38.044553 -91.497464 -130.139763 46.595628 170.989672 -53.865017 -81.83356 35.046838 -11.186068 21.044832 1.321675 171.537318 -63.186897 9.893002 -175.0167 10.283106 -64.175571 -11.102793 -6.397134 -69.450602 144.956508 -48.603851 -154.29583 173.7538 -11.140464 -63.926153 165.261552 -29.513069 -101.229589 171.401204 33.977505 -102.745402 -156.012279 -46.424595 136.729982 -99.866123 -7.030239 -169.924746 -58.346622 -7.589363 -142.094664 -62.59538 60.923387 71.478751 56.144993 -36.491287 98.125058 -53.701173 -7.319132 -76.103396 12.788747 53.350187 28.279961 0.547288 -2.873178 34.053879 75.274264 11.108291 -90.917767 39.478063 24.750437 98.597122 -18.142534 43.140619 12.363494 -1.601162 -8.468509 -32.936908 -82.041717 -0.429554 86.409831
-0.5112 59.4921 -0.34550000000000003 2.306881 31.987513 7.016892 -5.232968 14.16026 10.628426 0.57458 -9.331119 -11.940379 -14.70493 25.159948 -56.982906 44.419121 -7.601236 41.325476 -9.327307 0.299611 -3.671519 4.894491 0.148687 3.477932 37.694306 -88.675184 17.905387 -80.019834 -52.734652 -99.253568 -173.952825 7.583369 -96.011127 -7.681362 18.978517 -10.338424 175.036202 -20.493775 87.882583 170.442267 -22.2401 100.433733 171.992195 -71.686605 116.332774 -137.694357 -3.17113 137.413898 7.383004 -11.154561 5.293461 -177.023856 -18.605787 137.507115 -53.371003 -74.630855 -87.1368 27.485689 -16.342996 23.441631 -120.579095 -36.928117 -139.87077 -23.547239 12.496251 -14.083015 132.067616 55.58371 -134.055287 90.80872 24.133187 -59.499053 -4.082598 -8.911725 126.45567 177.159316 0.613092 -138.562997 2.788303 -0.400524 0.716847 43.299359 24.798324 -31.57441 49.152987 49.528798 -20.910298 160.854134 3.845861 -93.877625 5.104233 -20.601357 15.821227 27.47787 46.976528 -28.235348 65.388854 76.145097 -79.482011 -176.967989 7.610208 -176.006257 3.339469 -23.534221 16.599259 162.058027 -5.848112 150.937677 143.87612 73.449214 31.442861 162.968769 12.105616 -81.471282 -76.665889 -1.58839 7.549881 77.690097 -83.523551 177.489176 140.417754 72.455716 25.469042 -128.075112 35.718708 -33.890013 0.197614 68.239487 93.110435 -158.791278 20.06391 53.915277
-0.8706 61.124100000000006 -0.174 4.373413 29.667591 8.705345 -9.820959 11.741043 104.547296 -7.092927 -3.846639 -107.123698 6.84882 23.709864 85.815966 -43.85051 5.983172 -110.945367 1.891562 -0.020693 -1.253419 -11.853287 0.506929 -4.880316 -8.259126 37.130614 10.812331 -132.821804 -2.217474 136.304273 18.034955 -42.271619 -113.931292 173.402819 -16.594647 137.911274 85.242584 -50.634853 39.517071 -122.031162 25.190792 87.205602 -15.459353 25.567606 12.160001 -2.22763 -33.066564 -3.489015 10.042335 1.825987 2.80731 -102.83756 64.069548 69.443684 -126.894733 6.778631 -173.054687 56.324988 -0.122633 -6.203773 7.414933 -22.608882 -20.827299 66.634138 -83.195871 70.190918 -5.726856 -45.403649 1.371781 -75.346536 18.616345 29.261885 -152.120133 -5.416914 -32.171435 158.078818 34.039609 -131.409702 -4.201574 -0.467636 1.321096 10.193547 11.835536 -4.395737 138.78981 12.468489 -127.690267 5.083706 75.155576 -1.063041 113.95246 -82.409704 149.197762 134.262084 7.363399 -146.304819 144.557468 -38.568302 154.011815 -54.800406 64.166473 45.842546 136.745422 51.682034 133.186029 100.036659 38.595783 124.683954 42.644375 20.042583 44.584476 -113.018169 -10.105826 85.736661 73.298118 -44.007001 173.765387 83.689806 69.603059 4.699594 -1.069267 1.352289 1.399925 18.896582 -18.639274 6.610663 -23.20809 62.575492 -70.138979 -85.222671 81.435389 -179.129168
